<?xml version="1.0" encoding="UTF-8"?>
<svg width="1256px" height="256px" viewBox="0 0 1256 256" version="1.1" xmlns="http://www.w3.org/2000/svg" xmlns:xlink="http://www.w3.org/1999/xlink">
    <title>metaclout_logo完整版</title>
    <g id="metaclout_logo完整版" stroke="none" stroke-width="1" fill="none" fill-rule="evenodd">
        <path d="M376.56,212 C377.68,212 378.56,211.68 379.2,211.04 C379.84,210.4 380.24,209.52 380.4,208.4 L380.4,208.4 L392.4,110.24 C392.56,109.6 392.8,109.24 393.12,109.16 C393.44,109.08 393.68,109.28 393.84,109.76 L393.84,109.76 L406.08,137.6 L406.32,137.6 L409.2,133.28 L425.52,109.76 C425.84,109.28 426.2,109.08 426.6,109.16 C427,109.24 427.12,109.6 426.96,110.24 L426.96,110.24 L414.96,208.4 C414.8,209.52 415,210.4 415.56,211.04 C416.12,211.68 416.88,212 417.84,212 L417.84,212 L454.8,212 C455.76,212 456.6,211.68 457.32,211.04 C458.04,210.4 458.48,209.52 458.64,208.4 L458.64,208.4 L478.32,47.6 C478.48,46.48 478.28,45.6 477.72,44.96 C477.16,44.32 476.4,44 475.44,44 L475.44,44 L438.96,44 C437.04,44 435.6,44.88 434.64,46.64 L434.64,46.64 L414.72,77.84 C414.08,78.48 413.6,78.48 413.28,77.84 L413.28,77.84 L400.56,46.64 C399.92,44.88 398.64,44 396.72,44 L396.72,44 L360.24,44 C359.28,44 358.44,44.32 357.72,44.96 C357,45.6 356.56,46.48 356.4,47.6 L356.4,47.6 L336.72,208.4 C336.56,209.52 336.76,210.4 337.32,211.04 C337.88,211.68 338.72,212 339.84,212 L339.84,212 L376.56,212 Z M516.24,213.92 C531.92,213.92 544.08,210.52 552.72,203.72 C561.36,196.92 566.96,186.48 569.52,172.4 C570,170.16 569.04,168.88 566.64,168.56 L566.64,168.56 L531.36,166.16 C529.44,166 528,167.04 527.04,169.28 C525.76,173.28 523.76,175.28 521.04,175.28 C519.44,175.28 518.2,174.56 517.32,173.12 C516.44,171.68 516.16,169.84 516.48,167.6 L516.48,167.6 L517.2,162.08 C517.2,161.76 517.32,161.48 517.56,161.24 C517.8,161 518.08,160.88 518.4,160.88 L518.4,160.88 L568.08,160.88 C569.2,160.88 570.08,160.56 570.72,159.92 C571.36,159.28 571.76,158.4 571.92,157.28 L571.92,157.28 L575.52,128 C575.84,125.12 576,123.04 576,121.76 C576,110.56 572.2,101.68 564.6,95.12 C557,88.56 546.16,85.28 532.08,85.28 C516.72,85.28 504.2,89.16 494.52,96.92 C484.84,104.68 479.2,115.04 477.6,128 L477.6,128 L472.32,171.2 C472,174.4 471.84,176.64 471.84,177.92 C471.84,189.44 475.68,198.32 483.36,204.56 C491.04,210.8 502,213.92 516.24,213.92 Z M529.44,138.8 L521.28,138.8 C520.48,138.8 520.08,138.4 520.08,137.6 L520.08,137.6 L521.04,131.6 C521.36,129.36 522.08,127.52 523.2,126.08 C524.32,124.64 525.68,123.92 527.28,123.92 C528.56,123.92 529.6,124.48 530.4,125.6 C531.2,126.72 531.6,128.08 531.6,129.68 L531.6,129.68 L531.36,131.6 L530.64,137.6 C530.64,138.4 530.24,138.8 529.44,138.8 L529.44,138.8 Z M630.72,212 C631.68,212 632.52,211.68 633.24,211.04 C633.96,210.4 634.4,209.52 634.56,208.4 L634.56,208.4 L638.4,176.72 C638.56,175.6 638.36,174.72 637.8,174.08 C637.24,173.44 636.48,173.12 635.52,173.12 L635.52,173.12 L635.04,173.12 C632.64,173.28 630.88,172.84 629.76,171.8 C628.64,170.76 628.24,168.8 628.56,165.92 L628.56,165.92 L634.32,119.6 C634.32,118.8 634.72,118.4 635.52,118.4 L635.52,118.4 L645.6,118.4 C646.72,118.4 647.6,118.08 648.24,117.44 C648.88,116.8 649.28,115.92 649.44,114.8 L649.44,114.8 L652.56,90.8 C652.72,89.68 652.52,88.8 651.96,88.16 C651.4,87.52 650.56,87.2 649.44,87.2 L649.44,87.2 L639.36,87.2 C638.72,87.2 638.4,86.8 638.4,86 L638.4,86 L641.52,60.08 C641.68,58.96 641.48,58.08 640.92,57.44 C640.36,56.8 639.6,56.48 638.64,56.48 L638.64,56.48 L603.6,56.48 C602.48,56.48 601.6,56.8 600.96,57.44 C600.32,58.08 599.92,58.96 599.76,60.08 L599.76,60.08 L596.64,86 C596.32,86.8 595.84,87.2 595.2,87.2 L595.2,87.2 L588.72,87.2 C586.48,87.2 585.12,88.4 584.64,90.8 L584.64,90.8 L581.76,114.8 C581.6,115.92 581.8,116.8 582.36,117.44 C582.92,118.08 583.76,118.4 584.88,118.4 L584.88,118.4 L591.36,118.4 C592.32,118.4 592.64,118.8 592.32,119.6 L592.32,119.6 L584.4,184.16 C584.24,185.44 584.16,187.28 584.16,189.68 C584.16,198.48 587.12,204.4 593.04,207.44 C598.96,210.48 607.76,212 619.44,212 L619.44,212 L630.72,212 Z M676.32,213.92 C685.6,213.92 692.96,210.24 698.4,202.88 C698.72,202.4 699.04,202.16 699.36,202.16 C699.68,202.16 699.84,202.48 699.84,203.12 L699.84,203.12 L699.12,208.4 C698.96,209.52 699.16,210.4 699.72,211.04 C700.28,211.68 701.12,212 702.24,212 L702.24,212 L738.96,212 C740.08,212 740.96,211.68 741.6,211.04 C742.24,210.4 742.64,209.52 742.8,208.4 L742.8,208.4 L757.2,90.8 C757.36,89.68 757.16,88.8 756.6,88.16 C756.04,87.52 755.28,87.2 754.32,87.2 L754.32,87.2 L717.36,87.2 C716.4,87.2 715.56,87.52 714.84,88.16 C714.12,88.8 713.68,89.68 713.52,90.8 L713.52,90.8 L712.8,96.08 C712.8,96.72 712.64,97.08 712.32,97.16 C712,97.24 711.68,97.04 711.36,96.56 C707.84,89.04 701.44,85.28 692.16,85.28 C681.12,85.28 672.6,88.84 666.6,95.96 C660.6,103.08 656.72,113.76 654.96,128 L654.96,128 L649.68,171.2 C649.2,175.2 648.96,179.12 648.96,182.96 C648.96,193.04 651.12,200.72 655.44,206 C659.76,211.28 666.72,213.92 676.32,213.92 Z M697.92,175.28 C696.32,175.28 695.16,174.6 694.44,173.24 C693.72,171.88 693.52,170 693.84,167.6 L693.84,167.6 L698.4,131.6 C698.72,129.36 699.36,127.52 700.32,126.08 C701.28,124.64 702.56,123.92 704.16,123.92 C705.76,123.92 706.96,124.64 707.76,126.08 C708.56,127.52 708.8,129.36 708.48,131.6 L708.48,131.6 L704.16,167.6 C703.84,169.84 703.12,171.68 702,173.12 C700.88,174.56 699.52,175.28 697.92,175.28 Z M849.36,213.92 C864.72,213.92 877.64,209.28 888.12,200 C898.6,190.72 904.8,178.32 906.72,162.8 L906.72,162.8 L906.96,161.84 C907.12,160.72 906.92,159.8 906.36,159.08 C905.8,158.36 904.96,158 903.84,158 L903.84,158 L867.12,156.8 C866.16,156.8 865.32,157.08 864.6,157.64 C863.88,158.2 863.44,159.04 863.28,160.16 L863.28,160.16 L862.56,166.64 C862.24,169.36 861.32,171.48 859.8,173 C858.28,174.52 856.4,175.28 854.16,175.28 C851.92,175.28 850.28,174.48 849.24,172.88 C848.2,171.28 847.84,169.2 848.16,166.64 L848.16,166.64 L857.52,89.6 C857.84,86.88 858.76,84.72 860.28,83.12 C861.8,81.52 863.68,80.72 865.92,80.72 C868,80.72 869.6,81.52 870.72,83.12 C871.84,84.72 872.24,86.88 871.92,89.6 L871.92,89.6 L871.2,95.6 C870.88,97.84 871.92,98.96 874.32,98.96 L874.32,98.96 L911.28,97.76 C912.24,97.76 913.08,97.4 913.8,96.68 C914.52,95.96 914.96,95.04 915.12,93.92 L915.12,93.92 L915.36,92.72 C915.68,88.88 915.84,86.24 915.84,84.8 C915.84,71.52 911.76,61.08 903.6,53.48 C895.44,45.88 884.4,42.08 870.48,42.08 C855.12,42.08 842.24,46.64 831.84,55.76 C821.44,64.88 815.28,77.2 813.36,92.72 L813.36,92.72 L804.72,162.8 C804.4,166.64 804.24,169.36 804.24,170.96 C804.24,184.24 808.28,194.72 816.36,202.4 C824.44,210.08 835.44,213.92 849.36,213.92 Z M949.92,212 C951.04,212 951.92,211.68 952.56,211.04 C953.2,210.4 953.6,209.52 953.76,208.4 L953.76,208.4 L973.44,47.6 C973.6,46.48 973.4,45.6 972.84,44.96 C972.28,44.32 971.52,44 970.56,44 L970.56,44 L933.6,44 C932.64,44 931.8,44.32 931.08,44.96 C930.36,45.6 929.92,46.48 929.76,47.6 L929.76,47.6 L910.08,208.4 C909.92,209.52 910.12,210.4 910.68,211.04 C911.24,211.68 912.08,212 913.2,212 L913.2,212 L949.92,212 Z M1011.6,213.92 C1027.44,213.92 1040.04,210.2 1049.4,202.76 C1058.76,195.32 1064.32,184.8 1066.08,171.2 L1066.08,171.2 L1071.36,128 C1071.68,125.12 1071.84,123.04 1071.84,121.76 C1071.84,110.56 1068,101.68 1060.32,95.12 C1052.64,88.56 1041.68,85.28 1027.44,85.28 C1011.92,85.28 999.28,89.16 989.52,96.92 C979.76,104.68 974.08,115.04 972.48,128 L972.48,128 L967.2,171.2 C966.88,174.4 966.72,176.64 966.72,177.92 C966.72,189.44 970.6,198.32 978.36,204.56 C986.12,210.8 997.2,213.92 1011.6,213.92 Z M1016.16,175.28 C1014.56,175.28 1013.28,174.56 1012.32,173.12 C1011.36,171.68 1011.04,169.84 1011.36,167.6 L1011.36,167.6 L1015.92,131.6 C1016.24,129.36 1017,127.52 1018.2,126.08 C1019.4,124.64 1020.88,123.92 1022.64,123.92 C1024.24,123.92 1025.44,124.64 1026.24,126.08 C1027.04,127.52 1027.36,129.36 1027.2,131.6 L1027.2,131.6 L1022.88,167.6 C1022.56,169.84 1021.76,171.68 1020.48,173.12 C1019.2,174.56 1017.76,175.28 1016.16,175.28 Z M1102.8,213.92 C1107.12,213.92 1110.96,213.4 1114.32,212.36 C1117.68,211.32 1120.64,209.36 1123.2,206.48 C1123.52,206 1123.84,205.84 1124.16,206 C1124.48,206.16 1124.64,206.48 1124.64,206.96 L1124.64,206.96 L1124.4,208.4 C1124.24,209.52 1124.44,210.4 1125,211.04 C1125.56,211.68 1126.4,212 1127.52,212 L1127.52,212 L1164.24,212 C1165.36,212 1166.24,211.68 1166.88,211.04 C1167.52,210.4 1167.92,209.52 1168.08,208.4 L1168.08,208.4 L1182.48,90.8 C1182.64,89.68 1182.44,88.8 1181.88,88.16 C1181.32,87.52 1180.56,87.2 1179.6,87.2 L1179.6,87.2 L1142.64,87.2 C1141.68,87.2 1140.84,87.52 1140.12,88.16 C1139.4,88.8 1138.96,89.68 1138.8,90.8 L1138.8,90.8 L1129.44,167.6 C1128.64,172.72 1126.56,175.28 1123.2,175.28 C1120.32,175.28 1118.88,173.52 1118.88,170 C1118.88,169.04 1118.96,168.24 1119.12,167.6 L1119.12,167.6 L1128.48,90.8 C1128.64,89.68 1128.44,88.8 1127.88,88.16 C1127.32,87.52 1126.56,87.2 1125.6,87.2 L1125.6,87.2 L1088.64,87.2 C1087.68,87.2 1086.84,87.52 1086.12,88.16 C1085.4,88.8 1084.96,89.68 1084.8,90.8 L1084.8,90.8 L1074.24,177.44 C1073.92,180.64 1073.76,183.04 1073.76,184.64 C1073.76,194.72 1076.52,202.12 1082.04,206.84 C1087.56,211.56 1094.48,213.92 1102.8,213.92 Z M1234.56,212 C1235.52,212 1236.36,211.68 1237.08,211.04 C1237.8,210.4 1238.24,209.52 1238.4,208.4 L1238.4,208.4 L1242.24,176.72 C1242.4,175.6 1242.2,174.72 1241.64,174.08 C1241.08,173.44 1240.32,173.12 1239.36,173.12 L1239.36,173.12 L1238.88,173.12 C1236.48,173.28 1234.72,172.84 1233.6,171.8 C1232.48,170.76 1232.08,168.8 1232.4,165.92 L1232.4,165.92 L1238.16,119.6 C1238.16,118.8 1238.56,118.4 1239.36,118.4 L1239.36,118.4 L1249.44,118.4 C1250.56,118.4 1251.44,118.08 1252.08,117.44 C1252.72,116.8 1253.12,115.92 1253.28,114.8 L1253.28,114.8 L1256.4,90.8 C1256.56,89.68 1256.36,88.8 1255.8,88.16 C1255.24,87.52 1254.4,87.2 1253.28,87.2 L1253.28,87.2 L1243.2,87.2 C1242.56,87.2 1242.24,86.8 1242.24,86 L1242.24,86 L1245.36,60.08 C1245.52,58.96 1245.32,58.08 1244.76,57.44 C1244.2,56.8 1243.44,56.48 1242.48,56.48 L1242.48,56.48 L1207.44,56.48 C1206.32,56.48 1205.44,56.8 1204.8,57.44 C1204.16,58.08 1203.76,58.96 1203.6,60.08 L1203.6,60.08 L1200.48,86 C1200.16,86.8 1199.68,87.2 1199.04,87.2 L1199.04,87.2 L1192.56,87.2 C1190.32,87.2 1188.96,88.4 1188.48,90.8 L1188.48,90.8 L1185.6,114.8 C1185.44,115.92 1185.64,116.8 1186.2,117.44 C1186.76,118.08 1187.6,118.4 1188.72,118.4 L1188.72,118.4 L1195.2,118.4 C1196.16,118.4 1196.48,118.8 1196.16,119.6 L1196.16,119.6 L1188.24,184.16 C1188.08,185.44 1188,187.28 1188,189.68 C1188,198.48 1190.96,204.4 1196.88,207.44 C1202.8,210.48 1211.6,212 1223.28,212 L1223.28,212 L1234.56,212 Z" id="MetaClout" fill="#542DE0" fill-rule="nonzero"></path>
        <g id="logo" transform="translate(-0.000000, -0.000000)">
            <g id="编组" transform="translate(64.000000, 55.000001)" fill="#542DE0" fill-rule="nonzero">
                <path d="M30.54538,93.3791595 C46.5083995,98.964041 68.3066298,103.62189 92.5628572,106.115121 C115.551676,108.477584 136.772511,108.485635 153.201449,106.589672 C156.734811,106.182332 159.050321,110.148109 157.056232,113.091545 C138.232233,140.877217 102.302273,153.45827 69.3117439,141.46124 C48.4193604,133.863704 32.9715847,117.954511 25.3214245,98.8327216 C24.0010031,95.5321345 27.1864404,92.2040284 30.54538,93.3791595 Z M119.638358,4.54067782 C148.789102,15.1413736 167.363894,41.916951 168.912142,71.0308574 C180.592831,75.2205328 191.403961,80.0203881 190.988396,84.053729 C190.789698,85.9817905 188.944416,87.665162 185.754082,89.0895796 C172.95798,94.8064533 134.12601,95.9511402 93.7021902,91.7958521 C52.9699862,87.6104 14.9577222,78.6155111 3.85250532,70.3598364 C1.18814402,68.3791136 -0.174800943,66.421076 0.01797707,64.5517164 C0.396854118,60.8651165 10.7661817,58.4139639 21.2345658,56.6395218 C21.8542268,54.1960894 22.6024163,51.7593525 23.4841235,49.3390078 C37.6549314,10.4391989 80.7046522,-9.61759373 119.638358,4.54067782 Z" id="形状结合"></path>
            </g>
            <path d="M108.941513,52.3509408 C124.402745,42.293962 144.402488,35.7127046 168.559653,38.7431502 C193.136675,41.8262657 210.322394,51.8325256 222.222447,63.8497415 C242.680184,84.5088969 247.53916,111.080942 247.53916,118.392183 C247.53916,118.627799 247.534114,118.883419 247.524244,119.158345 C248.003353,119.27999 248.266334,119.354247 248.266334,119.354247 C248.266334,119.354247 260.749959,122.879183 268.060649,129.403964 C269.928414,131.070942 271.456808,132.933865 272.300416,134.999554 C273.008287,136.732872 273.223101,138.608316 272.735856,140.619673 C270.185589,151.147225 258.290211,154.722815 251.027721,157.016783 C248.956124,157.671129 247.224647,158.224198 246.104109,158.773287 C245.551178,159.044236 245.127913,159.325386 244.840696,159.604804 C244.454139,159.980864 244.266812,160.376979 244.221339,160.774992 C241.686179,168.331622 229.814945,191.428444 205.439005,205.868784 C191.019495,214.410923 172.220071,219.913808 148.383133,217.396948 C125.363592,214.966395 108.493314,205.613646 96.2801001,194.209996 C74.3527327,173.736102 67.406124,146.672383 66.8236126,141.300113 C66.8067246,141.144362 66.7911536,140.969656 66.7770949,140.777576 C66.4726093,140.619741 66.3093196,140.530576 66.3093191,140.530576 C66.3093149,140.530574 55.9500469,134.873873 49.9789964,127.353777 C47.1541878,123.79614 45.2691412,119.803043 46.2681944,115.791542 C47.1648664,112.191133 50.2260534,109.518622 53.8138915,107.539629 C59.8783008,104.194601 67.5625485,102.830569 70.1704181,102.830569 C70.4620207,102.830569 70.8170928,102.847623 71.226038,102.88179 C71.1889915,102.509799 71.1704181,102.158957 71.1704181,101.830569 C71.1704181,93.0678449 84.3953726,68.3173269 108.941513,52.3509408 Z" id="路径-6" stroke="#542DE0" stroke-width="2"></path>
            <path d="M69.8457518,64.2899208 C94.4717216,33.1952607 130.632729,18.2683761 170.560696,22.7962228 C191.921346,25.2185286 209.859031,32.1176938 224.210547,42.2487751 C239.566616,53.0889947 250.812053,67.6270284 257.755964,84.3122559 C259.470239,88.4314141 261.511253,95.7068274 263.890141,106.133728 L263.890141,106.133728 L264.040224,106.793793 C264.509791,108.865827 265.894983,110.612468 267.805583,111.541676 C278.028518,116.513536 285.398928,121.628344 289.888225,126.919304 C294.205415,132.007423 295.813562,137.244898 294.610671,142.651942 C292.414761,152.522646 282.073712,161.097101 263.93629,168.578953 L263.93629,168.578953 L263.308224,168.836306 C261.809851,169.446194 260.568972,170.556237 259.796589,171.977683 C247.275142,195.021372 231.58202,211.658269 212.692012,221.861555 C193.811193,232.059877 171.746658,235.823281 146.505762,233.184445 C112.077527,229.585108 86.5093151,213.959834 69.7860172,190.202222 C64.8216158,183.149647 58.4583845,170.354691 50.6804695,151.827826 L50.6804695,151.827826 L50.3349198,151.003181 C49.8032398,149.731956 48.9081998,148.645923 47.7619616,147.881179 C39.3003138,142.235756 33.1768647,136.595937 29.4156542,130.939564 C25.7555553,125.43525 24.3564727,119.928168 25.2735569,114.408392 C26.1567003,109.0929 28.6951931,104.648476 32.8835966,101.072077 C37.1598702,97.4206471 43.1313251,94.6739385 50.7753391,92.799082 L50.7753391,92.799082 L51.3207379,92.6674462 C53.3837103,92.1776145 55.1134784,90.7791149 56.0245188,88.8644882 C61.6719954,76.9958505 66.2735093,68.8005113 69.8457518,64.2899208 Z" id="路径-6" stroke-opacity="0.5" stroke="#542DE0" stroke-width="2"></path>
            <path d="M53.3208986,49.2340678 C82.4768169,12.2042733 125.380599,-3.21836836 172.675603,1.98228557 C203.090764,5.32679805 227.6611,14.5413507 246.368717,29.6649767 C265.051495,44.7685218 277.871924,65.7610385 284.856011,92.61898 L284.856011,92.61898 L285.274512,94.2632271 C286.361608,98.6283798 288.962249,102.466227 292.613606,105.09376 C302.678443,112.33646 309.885198,119.361296 314.209527,126.189404 C318.422719,132.842025 319.87528,139.29124 318.491671,145.546985 C315.907794,157.229534 303.717341,169.686701 282.173556,183.044298 L282.173556,183.044298 L281.501823,183.459194 C279.20826,184.870419 277.240889,186.753077 275.730146,188.982347 C265.736702,203.728788 258.187543,213.74426 253.073075,219.020365 C226.929481,245.990195 191.609941,258.337109 145.163427,254.155196 C117.879037,251.698587 94.8143818,243.007751 75.9789265,228.060289 C57.1271333,213.099861 42.5176217,191.880553 32.1271248,164.42547 L32.1271248,164.42547 L31.4996186,162.74598 C30.3136364,159.530537 28.2800224,156.695746 25.6142027,154.541905 C16.4000415,147.097351 9.75583997,139.831051 5.70238381,132.726528 C1.727167,125.759135 0.260369238,118.960157 1.34849545,112.322719 C3.36405614,100.028044 12.9143971,90.1610017 29.7755948,82.5872307 L29.7755948,82.5872307 L30.3715057,82.3218475 C34.5797921,80.4638118 37.9710636,77.1420875 39.9158876,72.9731991 C45.0292138,62.0123686 49.4927158,54.0960936 53.3208986,49.2340678 Z" id="路径-6" stroke-opacity="0.15" stroke="#542DE0" stroke-width="2"></path>
        </g>
    </g>
</svg>