<?xml version="1.0" encoding="UTF-8"?>
<svg width="328px" height="328px" viewBox="0 0 328 328" version="1.1" xmlns="http://www.w3.org/2000/svg" xmlns:xlink="http://www.w3.org/1999/xlink">
    <title>metaclout_logo</title>
    <g id="metaclout_logo" stroke="none" stroke-width="1" fill="none" fill-rule="evenodd">
        <g id="logo" transform="translate(4.000000, 36.000000)">
            <g id="编组" transform="translate(64.000000, 55.000001)" fill="#542DE0" fill-rule="nonzero">
                <path d="M30.54538,93.3791595 C46.5083995,98.964041 68.3066298,103.62189 92.5628572,106.115121 C115.551676,108.477584 136.772511,108.485635 153.201449,106.589672 C156.734811,106.182332 159.050321,110.148109 157.056232,113.091545 C138.232233,140.877217 102.302273,153.45827 69.3117439,141.46124 C48.4193604,133.863704 32.9715847,117.954511 25.3214245,98.8327216 C24.0010031,95.5321345 27.1864404,92.2040284 30.54538,93.3791595 Z M119.638358,4.54067782 C148.789102,15.1413736 167.363894,41.916951 168.912142,71.0308574 C180.592831,75.2205328 191.403961,80.0203881 190.988396,84.053729 C190.789698,85.9817905 188.944416,87.665162 185.754082,89.0895796 C172.95798,94.8064533 134.12601,95.9511402 93.7021902,91.7958521 C52.9699862,87.6104 14.9577222,78.6155111 3.85250532,70.3598364 C1.18814402,68.3791136 -0.174800943,66.421076 0.01797707,64.5517164 C0.396854118,60.8651165 10.7661817,58.4139639 21.2345658,56.6395218 C21.8542268,54.1960894 22.6024163,51.7593525 23.4841235,49.3390078 C37.6549314,10.4391989 80.7046522,-9.61759373 119.638358,4.54067782 Z" id="形状结合"></path>
            </g>
            <path d="M109.331209,52.3121707 C124.602692,42.2767492 144.434766,35.7167539 168.559653,38.7431502 C193.134197,41.8259548 210.185899,51.6962311 221.916276,63.5435647 C242.080805,83.9091433 246.53916,110.082463 246.53916,117.392183 C246.53916,117.628197 246.534513,117.883875 246.524848,118.158498 C247.003574,118.280052 247.266334,118.354247 247.266334,118.354247 C247.266334,118.354247 259.749959,121.879183 267.060649,128.403964 C268.928414,130.070942 270.456808,131.933865 271.300416,133.999554 C272.008287,135.732872 272.223101,137.608316 271.735856,139.619673 C269.185589,150.147225 257.290211,153.722815 250.027721,156.016783 C247.956124,156.671129 246.224647,157.224198 245.104109,157.773287 C244.551178,158.044236 244.127913,158.325386 243.840696,158.604804 C243.454002,158.980998 243.266679,159.37726 243.221292,159.775268 C240.68508,167.351523 229.169606,190.918727 204.985998,205.646557 C190.757787,214.311545 172.140214,219.905376 148.383133,217.396948 C125.391581,214.96935 108.66101,205.636006 96.6149887,194.250372 C74.9474631,173.770703 68.4064708,146.675582 67.8236126,141.300113 C67.8067146,141.144269 67.7907951,140.96952 67.7762071,140.777116 C67.472292,140.619568 67.3093196,140.530576 67.3093191,140.530576 C67.3093148,140.530573 56.9500469,134.873872 50.9789964,127.353777 C48.1541878,123.79614 46.2691412,119.803043 47.2681944,115.791542 C48.1648664,112.191133 51.2260534,109.518622 54.8138915,107.539629 C60.8783008,104.194601 68.5625485,102.830569 71.1704181,102.830569 C71.4617023,102.830569 71.8163176,102.847586 72.2243667,102.880763 C72.188426,102.509148 72.1704181,102.158649 72.1704181,101.830569 C72.1704181,93.0617795 85.0345831,68.278327 109.331209,52.3121707 Z" id="路径-6" stroke="#542DE0" stroke-width="2"></path>
            <path d="M69.8457518,64.2899208 C94.4717216,33.1952607 130.632729,18.2683761 170.560696,22.7962228 C191.921346,25.2185286 209.859031,32.1176938 224.210547,42.2487751 C239.566616,53.0889947 250.812053,67.6270284 257.755964,84.3122559 C259.454633,88.3939135 261.205599,95.5827468 263.027394,105.871404 L263.027394,105.871404 L263.14476,106.538012 C263.531617,108.747665 264.954049,110.638054 266.970092,111.621818 C277.13441,116.581676 284.461743,121.683643 288.923448,126.960891 C293.21426,132.036008 294.810265,137.259716 293.610671,142.651942 C291.416343,152.515537 281.088466,161.084732 262.97528,168.562862 L262.97528,168.562862 L262.340902,168.823012 C260.819673,169.442631 259.564788,170.577479 258.795848,172.028961 C246.598014,195.054096 231.150988,211.677752 212.428605,221.872456 C193.713767,232.06305 171.736873,235.822258 146.505762,233.184445 C112.077527,229.585108 86.5093151,213.959834 69.7860172,190.202222 C64.8341962,183.167519 58.7946606,170.414407 51.647196,151.955884 L51.647196,151.955884 L51.3295891,151.133768 C50.8104132,149.786864 49.8875338,148.6334 48.6873551,147.831363 C40.2521134,142.194385 34.1481186,136.563007 30.3994064,130.915107 C26.7513933,125.418923 25.3578349,119.919969 26.2735569,114.408392 C27.1539841,109.109248 29.6795492,104.675779 33.8450334,101.10507 C38.097524,97.4597772 44.0347262,94.7136113 51.633997,92.8339034 L51.633997,92.8339034 L52.182654,92.7003685 C54.3350962,92.1850467 56.1170307,90.6821313 56.9880123,88.6474434 C62.0188815,76.8949006 66.2971665,68.7706399 69.8457518,64.2899208 Z" id="路径-6" stroke-opacity="0.5" stroke="#542DE0" stroke-width="2"></path>
            <path d="M53.3208986,49.2340678 C82.4768169,12.2042733 125.380599,-3.21836836 172.675603,1.98228557 C203.090764,5.32679805 227.6611,14.5413507 246.368717,29.6649767 C265.051495,44.7685218 277.871924,65.7610385 284.856011,92.61898 L284.856011,92.61898 L285.274512,94.2632271 C286.361608,98.6283798 288.962249,102.466227 292.613606,105.09376 C302.678443,112.33646 309.885198,119.361296 314.209527,126.189404 C318.422719,132.842025 319.87528,139.29124 318.491671,145.546985 C315.907794,157.229534 303.717341,169.686701 282.173556,183.044298 L282.173556,183.044298 L281.501823,183.459194 C279.20826,184.870419 277.240889,186.753077 275.730146,188.982347 C265.736702,203.728788 258.187543,213.74426 253.073075,219.020365 C226.929481,245.990195 191.609941,258.337109 145.163427,254.155196 C117.879037,251.698587 94.8143818,243.007751 75.9789265,228.060289 C57.1271333,213.099861 42.5176217,191.880553 32.1271248,164.42547 L32.1271248,164.42547 L31.4996186,162.74598 C30.3136364,159.530537 28.2800224,156.695746 25.6142027,154.541905 C16.4000415,147.097351 9.75583997,139.831051 5.70238381,132.726528 C1.727167,125.759135 0.260369238,118.960157 1.34849545,112.322719 C3.36405614,100.028044 12.9143971,90.1610017 29.7755948,82.5872307 L29.7755948,82.5872307 L30.3715057,82.3218475 C34.5797921,80.4638118 37.9710636,77.1420875 39.9158876,72.9731991 C45.0292138,62.0123686 49.4927158,54.0960936 53.3208986,49.2340678 Z" id="路径-6" stroke-opacity="0.15" stroke="#542DE0" stroke-width="2"></path>
        </g>
    </g>
</svg>