<svg width="328" height="328" xmlns="http://www.w3.org/2000/svg"><g fill="none" fill-rule="evenodd"><path d="M98.545 184.38c15.963 5.584 37.762 10.242 62.018 12.735 22.989 2.363 44.21 2.37 60.638.475 3.534-.408 5.85 3.558 3.855 6.502-18.824 27.785-54.754 40.366-87.744 28.37-20.893-7.598-36.34-23.507-43.99-42.63-1.321-3.3 1.864-6.628 5.223-5.453zm89.093-88.84c29.151 10.601 47.726 37.377 49.274 66.49 11.68 4.19 22.492 8.99 22.076 13.024-.198 1.928-2.044 3.611-5.234 5.036-12.796 5.716-51.628 6.861-92.052 2.706-40.732-4.186-78.744-13.18-89.85-21.436-2.664-1.98-4.027-3.939-3.834-5.808.379-3.687 10.748-6.138 21.217-7.912a75.67 75.67 0 0 1 2.25-7.301c14.17-38.9 57.22-58.957 96.153-44.798z" fill="#542DE0" fill-rule="nonzero"/><path d="M113.331 88.312c15.272-10.035 35.104-16.595 59.229-13.569 24.574 3.083 41.626 12.953 53.356 24.8 20.165 20.366 24.623 46.54 24.623 53.85 0 .235-.004.49-.014.765.479.122.741.196.741.196s12.484 3.525 19.795 10.05c1.867 1.667 3.396 3.53 4.24 5.596.707 1.733.922 3.608.435 5.62-2.55 10.527-14.446 14.103-21.708 16.397-2.072.654-3.803 1.207-4.924 1.756-.553.271-.976.552-1.263.832-.387.376-.574.772-.62 1.17-2.536 7.577-14.051 31.144-38.235 45.872-14.228 8.665-32.846 14.258-56.603 11.75-22.991-2.428-39.722-11.761-51.768-23.147-21.668-20.48-28.209-47.574-28.791-52.95a16.37 16.37 0 0 1-.048-.523c-.304-.157-.467-.246-.467-.246s-10.359-5.657-16.33-13.177c-2.825-3.558-4.71-7.551-3.71-11.562.896-3.6 3.957-6.273 7.545-8.252 6.064-3.345 13.749-4.71 16.356-4.71.292 0 .646.018 1.054.05a10.946 10.946 0 0 1-.054-1.05c0-8.768 12.865-33.552 37.161-49.518z" stroke="#542DE0" stroke-width="2"/><path d="M73.846 100.29c24.626-31.095 60.787-46.022 100.715-41.494 21.36 2.423 39.298 9.322 53.65 19.453 15.356 10.84 26.601 25.378 33.545 42.063 1.699 4.082 3.45 11.27 5.271 21.56l.118.666a7 7 0 0 0 3.825 5.084c10.164 4.96 17.492 10.062 21.953 15.339 4.291 5.075 5.887 10.299 4.688 15.69-2.195 9.865-12.523 18.434-30.636 25.912l-.634.26a7 7 0 0 0-3.545 3.206c-12.198 23.025-27.645 39.649-46.367 49.843-18.715 10.191-40.692 13.95-65.923 11.312-34.428-3.599-59.997-19.224-76.72-42.982-4.952-7.034-10.991-19.788-18.139-38.246l-.317-.822a7 7 0 0 0-2.643-3.303c-8.435-5.637-14.539-11.268-18.288-16.916-3.648-5.496-5.041-10.995-4.125-16.507.88-5.299 3.406-9.732 7.571-13.303 4.253-3.645 10.19-6.391 17.789-8.271l.549-.134a7 7 0 0 0 4.805-4.053c5.03-11.752 9.31-19.876 12.858-24.357z" stroke-opacity=".5" stroke="#542DE0" stroke-width="2"/><path d="M57.32 85.234c29.157-37.03 72.06-52.452 119.356-47.252 30.415 3.345 54.985 12.56 73.693 27.683 18.682 15.104 31.503 36.096 38.487 62.954l.419 1.644a19 19 0 0 0 7.339 10.83c10.064 7.243 17.271 14.268 21.596 21.096 4.213 6.653 5.665 13.102 4.282 19.358-2.584 11.683-14.775 24.14-36.318 37.497l-.672.415a19 19 0 0 0-5.772 5.523c-9.993 14.747-17.542 24.762-22.657 30.038-26.144 26.97-61.463 39.317-107.91 35.135-27.284-2.456-50.349-11.147-69.184-26.095-18.852-14.96-33.461-36.18-43.852-63.635l-.627-1.679a19 19 0 0 0-5.886-8.204c-9.214-7.445-15.858-14.71-19.912-21.815-3.975-6.968-5.442-13.767-4.354-20.404 2.016-12.295 11.566-22.162 28.428-29.736l.596-.265a19 19 0 0 0 9.544-9.349c5.113-10.96 9.577-18.877 13.405-23.739z" stroke-opacity=".15" stroke="#542DE0" stroke-width="2"/></g></svg>