<svg width="1256" height="256" xmlns="http://www.w3.org/2000/svg"><g fill="none" fill-rule="evenodd"><path d="M376.56 212c1.12 0 2-.32 2.64-.96.64-.64 1.04-1.52 1.2-2.64l12-98.16c.16-.64.4-1 .72-1.08.32-.08.56.12.72.6l12.24 27.84h.24l2.88-4.32 16.32-23.52c.32-.48.68-.68 1.08-.6.4.08.52.44.36 1.08l-12 98.16c-.16 1.12.04 2 .6 2.64.56.64 1.32.96 2.28.96h36.96c.96 0 1.8-.32 2.52-.96.72-.64 1.16-1.52 1.32-2.64l19.68-160.8c.16-1.12-.04-2-.6-2.64-.56-.64-1.32-.96-2.28-.96h-36.48c-1.92 0-3.36.88-4.32 2.64l-19.92 31.2c-.64.64-1.12.64-1.44 0l-12.72-31.2c-.64-1.76-1.92-2.64-3.84-2.64h-36.48c-.96 0-1.8.32-2.52.96-.72.64-1.16 1.52-1.32 2.64l-19.68 160.8c-.16 1.12.04 2 .6 2.64.56.64 1.4.96 2.52.96h36.72zm139.68 1.92c15.68 0 27.84-3.4 36.48-10.2 8.64-6.8 14.24-17.24 16.8-31.32.48-2.24-.48-3.52-2.88-3.84l-35.28-2.4c-1.92-.16-3.36.88-4.32 3.12-1.28 4-3.28 6-6 6-1.6 0-2.84-.72-3.72-2.16-.88-1.44-1.16-3.28-.84-5.52l.72-5.52c0-.32.12-.6.36-.84s.52-.36.84-.36h49.68c1.12 0 2-.32 2.64-.96.64-.64 1.04-1.52 1.2-2.64l3.6-29.28c.32-2.88.48-4.96.48-6.24 0-11.2-3.8-20.08-11.4-26.64-7.6-6.56-18.44-9.84-32.52-9.84-15.36 0-27.88 3.88-37.56 11.64-9.68 7.76-15.32 18.12-16.92 31.08l-5.28 43.2c-.32 3.2-.48 5.44-.48 6.72 0 11.52 3.84 20.4 11.52 26.64 7.68 6.24 18.64 9.36 32.88 9.36zm13.2-75.12h-8.16c-.8 0-1.2-.4-1.2-1.2l.96-6c.32-2.24 1.04-4.08 2.16-5.52 1.12-1.44 2.48-2.16 4.08-2.16 1.28 0 2.32.56 3.12 1.68.8 1.12 1.2 2.48 1.2 4.08l-.24 1.92-.72 6c0 .8-.4 1.2-1.2 1.2zM630.72 212c.96 0 1.8-.32 2.52-.96.72-.64 1.16-1.52 1.32-2.64l3.84-31.68c.16-1.12-.04-2-.6-2.64-.56-.64-1.32-.96-2.28-.96h-.48c-2.4.16-4.16-.28-5.28-1.32s-1.52-3-1.2-5.88l5.76-46.32c0-.8.4-1.2 1.2-1.2h10.08c1.12 0 2-.32 2.64-.96.64-.64 1.04-1.52 1.2-2.64l3.12-24c.16-1.12-.04-2-.6-2.64-.56-.64-1.4-.96-2.52-.96h-10.08c-.64 0-.96-.4-.96-1.2l3.12-25.92c.16-1.12-.04-2-.6-2.64-.56-.64-1.32-.96-2.28-.96H603.6c-1.12 0-2 .32-2.64.96-.64.64-1.04 1.52-1.2 2.64L596.64 86c-.32.8-.8 1.2-1.44 1.2h-6.48c-2.24 0-3.6 1.2-4.08 3.6l-2.88 24c-.16 1.12.04 2 .6 2.64.56.64 1.4.96 2.52.96h6.48c.96 0 1.28.4.96 1.2l-7.92 64.56c-.16 1.28-.24 3.12-.24 5.52 0 8.8 2.96 14.72 8.88 17.76 5.92 3.04 14.72 4.56 26.4 4.56h11.28zm45.6 1.92c9.28 0 16.64-3.68 22.08-11.04.32-.48.64-.72.96-.72.32 0 .48.32.48.96l-.72 5.28c-.16 1.12.04 2 .6 2.64.56.64 1.4.96 2.52.96h36.72c1.12 0 2-.32 2.64-.96.64-.64 1.04-1.52 1.2-2.64l14.4-117.6c.16-1.12-.04-2-.6-2.64-.56-.64-1.32-.96-2.28-.96h-36.96c-.96 0-1.8.32-2.52.96-.72.64-1.16 1.52-1.32 2.64l-.72 5.28c0 .64-.16 1-.48 1.08-.32.08-.64-.12-.96-.6-3.52-7.52-9.92-11.28-19.2-11.28-11.04 0-19.56 3.56-25.56 10.68-6 7.12-9.88 17.8-11.64 32.04l-5.28 43.2c-.48 4-.72 7.92-.72 11.76 0 10.08 2.16 17.76 6.48 23.04 4.32 5.28 11.28 7.92 20.88 7.92zm21.6-38.64c-1.6 0-2.76-.68-3.48-2.04-.72-1.36-.92-3.24-.6-5.64l4.56-36c.32-2.24.96-4.08 1.92-5.52.96-1.44 2.24-2.16 3.84-2.16 1.6 0 2.8.72 3.6 2.16.8 1.44 1.04 3.28.72 5.52l-4.32 36c-.32 2.24-1.04 4.08-2.16 5.52-1.12 1.44-2.48 2.16-4.08 2.16zm151.44 38.64c15.36 0 28.28-4.64 38.76-13.92 10.48-9.28 16.68-21.68 18.6-37.2l.24-.96c.16-1.12-.04-2.04-.6-2.76-.56-.72-1.4-1.08-2.52-1.08l-36.72-1.2c-.96 0-1.8.28-2.52.84-.72.56-1.16 1.4-1.32 2.52l-.72 6.48c-.32 2.72-1.24 4.84-2.76 6.36-1.52 1.52-3.4 2.28-5.64 2.28-2.24 0-3.88-.8-4.92-2.4-1.04-1.6-1.4-3.68-1.08-6.24l9.36-77.04c.32-2.72 1.24-4.88 2.76-6.48 1.52-1.6 3.4-2.4 5.64-2.4 2.08 0 3.68.8 4.8 2.4 1.12 1.6 1.52 3.76 1.2 6.48l-.72 6c-.32 2.24.72 3.36 3.12 3.36l36.96-1.2c.96 0 1.8-.36 2.52-1.08.72-.72 1.16-1.64 1.32-2.76l.24-1.2c.32-3.84.48-6.48.48-7.92 0-13.28-4.08-23.72-12.24-31.32-8.16-7.6-19.2-11.4-33.12-11.4-15.36 0-28.24 4.56-38.64 13.68-10.4 9.12-16.56 21.44-18.48 36.96l-8.64 70.08c-.32 3.84-.48 6.56-.48 8.16 0 13.28 4.04 23.76 12.12 31.44 8.08 7.68 19.08 11.52 33 11.52zM949.92 212c1.12 0 2-.32 2.64-.96.64-.64 1.04-1.52 1.2-2.64l19.68-160.8c.16-1.12-.04-2-.6-2.64-.56-.64-1.32-.96-2.28-.96H933.6c-.96 0-1.8.32-2.52.96-.72.64-1.16 1.52-1.32 2.64l-19.68 160.8c-.16 1.12.04 2 .6 2.64.56.64 1.4.96 2.52.96h36.72zm61.68 1.92c15.84 0 28.44-3.72 37.8-11.16 9.36-7.44 14.92-17.96 16.68-31.56l5.28-43.2c.32-2.88.48-4.96.48-6.24 0-11.2-3.84-20.08-11.52-26.64-7.68-6.56-18.64-9.84-32.88-9.84-15.52 0-28.16 3.88-37.92 11.64-9.76 7.76-15.44 18.12-17.04 31.08l-5.28 43.2c-.32 3.2-.48 5.44-.48 6.72 0 11.52 3.88 20.4 11.64 26.64 7.76 6.24 18.84 9.36 33.24 9.36zm4.56-38.64c-1.6 0-2.88-.72-3.84-2.16-.96-1.44-1.28-3.28-.96-5.52l4.56-36c.32-2.24 1.08-4.08 2.28-5.52 1.2-1.44 2.68-2.16 4.44-2.16 1.6 0 2.8.72 3.6 2.16.8 1.44 1.12 3.28.96 5.52l-4.32 36c-.32 2.24-1.12 4.08-2.4 5.52-1.28 1.44-2.72 2.16-4.32 2.16zm86.64 38.64c4.32 0 8.16-.52 11.52-1.56 3.36-1.04 6.32-3 8.88-5.88.32-.48.64-.64.96-.48.32.16.48.48.48.96l-.24 1.44c-.16 1.12.04 2 .6 2.64.56.64 1.4.96 2.52.96h36.72c1.12 0 2-.32 2.64-.96.64-.64 1.04-1.52 1.2-2.64l14.4-117.6c.16-1.12-.04-2-.6-2.64-.56-.64-1.32-.96-2.28-.96h-36.96c-.96 0-1.8.32-2.52.96-.72.64-1.16 1.52-1.32 2.64l-9.36 76.8c-.8 5.12-2.88 7.68-6.24 7.68-2.88 0-4.32-1.76-4.32-5.28 0-.96.08-1.76.24-2.4l9.36-76.8c.16-1.12-.04-2-.6-2.64-.56-.64-1.32-.96-2.28-.96h-36.96c-.96 0-1.8.32-2.52.96-.72.64-1.16 1.52-1.32 2.64l-10.56 86.64c-.32 3.2-.48 5.6-.48 7.2 0 10.08 2.76 17.48 8.28 22.2 5.52 4.72 12.44 7.08 20.76 7.08zm131.76-1.92c.96 0 1.8-.32 2.52-.96.72-.64 1.16-1.52 1.32-2.64l3.84-31.68c.16-1.12-.04-2-.6-2.64-.56-.64-1.32-.96-2.28-.96h-.48c-2.4.16-4.16-.28-5.28-1.32s-1.52-3-1.2-5.88l5.76-46.32c0-.8.4-1.2 1.2-1.2h10.08c1.12 0 2-.32 2.64-.96.64-.64 1.04-1.52 1.2-2.64l3.12-24c.16-1.12-.04-2-.6-2.64-.56-.64-1.4-.96-2.52-.96h-10.08c-.64 0-.96-.4-.96-1.2l3.12-25.92c.16-1.12-.04-2-.6-2.64-.56-.64-1.32-.96-2.28-.96h-35.04c-1.12 0-2 .32-2.64.96-.64.64-1.04 1.52-1.2 2.64L1200.48 86c-.32.8-.8 1.2-1.44 1.2h-6.48c-2.24 0-3.6 1.2-4.08 3.6l-2.88 24c-.16 1.12.04 2 .6 2.64.56.64 1.4.96 2.52.96h6.48c.96 0 1.28.4.96 1.2l-7.92 64.56c-.16 1.28-.24 3.12-.24 5.52 0 8.8 2.96 14.72 8.88 17.76 5.92 3.04 14.72 4.56 26.4 4.56h11.28zM94.545 148.38c15.963 5.584 37.762 10.242 62.018 12.735 22.989 2.363 44.21 2.37 60.638.475 3.534-.408 5.85 3.558 3.855 6.502-18.824 27.785-54.754 40.366-87.744 28.37-20.893-7.598-36.34-23.507-43.99-42.63-1.321-3.3 1.864-6.628 5.223-5.453zm89.093-88.84c29.151 10.601 47.726 37.377 49.274 66.49 11.68 4.19 22.492 8.99 22.076 13.024-.198 1.928-2.044 3.611-5.234 5.036-12.796 5.716-51.628 6.861-92.052 2.706-40.732-4.186-78.744-13.18-89.85-21.436-2.664-1.98-4.027-3.939-3.834-5.808.379-3.687 10.748-6.138 21.217-7.912a75.67 75.67 0 0 1 2.25-7.301c14.17-38.9 57.22-58.957 96.153-44.798z" fill="#542DE0" fill-rule="nonzero"/><path d="M108.942 52.35c15.46-10.056 35.46-16.637 59.618-13.607 24.577 3.083 41.762 13.09 53.662 25.107 20.458 20.659 25.317 47.23 25.317 54.542 0 .236-.005.491-.015.766.48.122.742.196.742.196s12.484 3.525 19.795 10.05c1.867 1.667 3.396 3.53 4.24 5.596.707 1.733.922 3.608.435 5.62-2.55 10.527-14.446 14.103-21.708 16.397-2.072.654-3.803 1.207-4.924 1.756-.553.271-.976.552-1.263.832-.387.376-.574.772-.62 1.17-2.535 7.557-14.406 30.653-38.782 45.094-14.42 8.542-33.219 14.045-57.056 11.528-23.02-2.43-39.89-11.783-52.103-23.187-21.927-20.474-28.874-47.538-29.456-52.91a15.15 15.15 0 0 1-.047-.522c-.304-.158-.468-.247-.468-.247s-10.359-5.657-16.33-13.177c-2.825-3.558-4.71-7.551-3.71-11.562.896-3.6 3.957-6.273 7.545-8.252 6.064-3.345 13.749-4.71 16.356-4.71.292 0 .647.018 1.056.052a10.643 10.643 0 0 1-.056-1.051c0-8.763 13.225-33.514 37.772-49.48z" stroke="#542DE0" stroke-width="2"/><path d="M69.846 64.29c24.626-31.095 60.787-46.022 100.715-41.494 21.36 2.423 39.298 9.322 53.65 19.453 15.356 10.84 26.601 25.378 33.545 42.063 1.714 4.12 3.755 11.395 6.134 21.822l.15.66a7 7 0 0 0 3.766 4.748c10.223 4.972 17.593 10.086 22.082 15.377 4.317 5.088 5.926 10.326 4.723 15.733-2.196 9.87-12.537 18.445-30.675 25.927l-.628.257a7 7 0 0 0-3.511 3.142c-12.522 23.043-28.215 39.68-47.105 49.884-18.88 10.198-40.945 13.961-66.186 11.322-34.428-3.599-59.997-19.224-76.72-42.982-4.964-7.052-11.328-19.847-19.106-38.374l-.345-.825a7 7 0 0 0-2.573-3.122c-8.462-5.645-14.585-11.285-18.346-16.941-3.66-5.505-5.06-11.012-4.142-16.532.883-5.315 3.421-9.76 7.61-13.336 4.276-3.651 10.247-6.398 17.891-8.273l.546-.132a7 7 0 0 0 4.704-3.803c5.647-11.868 10.249-20.063 13.82-24.574z" stroke-opacity=".5" stroke="#542DE0" stroke-width="2"/><path d="M53.32 49.234c29.157-37.03 72.06-52.452 119.356-47.252 30.415 3.345 54.985 12.56 73.693 27.683 18.682 15.104 31.503 36.096 38.487 62.954l.419 1.644a19 19 0 0 0 7.339 10.83c10.064 7.243 17.271 14.268 21.596 21.096 4.213 6.653 5.665 13.102 4.282 19.358-2.584 11.683-14.775 24.14-36.318 37.497l-.672.415a19 19 0 0 0-5.772 5.523c-9.993 14.747-17.542 24.762-22.657 30.038-26.144 26.97-61.463 39.317-107.91 35.135-27.284-2.456-50.349-11.147-69.184-26.095-18.852-14.96-33.461-36.18-43.852-63.635l-.627-1.679a19 19 0 0 0-5.886-8.204c-9.214-7.445-15.858-14.71-19.912-21.815-3.975-6.968-5.442-13.767-4.354-20.404 2.016-12.295 11.566-22.162 28.428-29.736l.596-.265a19 19 0 0 0 9.544-9.349c5.113-10.96 9.577-18.877 13.405-23.739z" stroke-opacity=".15" stroke="#542DE0" stroke-width="2"/></g></svg>