<svg width="29" height="30" xmlns="http://www.w3.org/2000/svg"><defs><filter x="-34.2%" y="-32.5%" width="168.4%" height="165%" filterUnits="objectBoundingBox" id="a"><feOffset dy="1" in="SourceAlpha" result="shadowOffsetOuter1"/><feGaussianBlur stdDeviation="1" in="shadowOffsetOuter1" result="shadowBlurOuter1"/><feColorMatrix values="0 0 0 0 0 0 0 0 0 0 0 0 0 0 0 0 0 0 0.25 0" in="shadowBlurOuter1" result="shadowMatrixOuter1"/><feMerge><feMergeNode in="shadowMatrixOuter1"/><feMergeNode in="SourceGraphic"/></feMerge></filter></defs><g filter="url(#a)" transform="translate(5 5)" fill-rule="nonzero" fill="none"><path d="M18.49 12.756V7.12c0-1.532-.821-2.946-2.15-3.705L11.36.569a4.267 4.267 0 0 0-4.233 0L2.15 3.414A4.267 4.267 0 0 0 0 7.119v5.637c0 1.531.82 2.945 2.15 3.705l4.978 2.845c1.311.75 2.922.75 4.233 0l4.978-2.845a4.267 4.267 0 0 0 2.15-3.705z" fill="#FFF"/><path d="M15.69 4.684a2.844 2.844 0 0 1 1.379 2.502l-.128 5.731a2.844 2.844 0 0 1-1.452 2.418l-5.002 2.802c-.89.498-1.98.482-2.855-.043L2.8 15.19a2.844 2.844 0 0 1-1.38-2.502l.128-5.731A2.844 2.844 0 0 1 3 4.54l5.002-2.802c.89-.499 1.98-.483 2.856.043l4.831 2.903z" fill="#FA6400"/><path d="m6.604 14.102-.71-6.427a.966.966 0 0 0-.238-.617c0-.124-.237-.248-.356-.248l.12-.247h2.013c.238 0 .356 0 .475.123.118.124.118.248.236.495L8.5 11.63l2.253-4.325v-.247c0-.124 0-.124-.118-.248-.118 0-.238-.124-.356-.124l.118-.247h2.252c.118 0 .237 0 .355.124 0 .123.118.247.118.37L8.738 14.1l-2.134.002z" fill="#FFF"/></g></svg>