<svg class="icon" viewBox="0 0 1024 1024" xmlns="http://www.w3.org/2000/svg" width="200" height="200"><path d="M971.733 417.493a463.573 463.573 0 0 0-27.306-88.106A450.56 450.56 0 0 0 901.76 249.6a42.667 42.667 0 1 0-70.613 47.787 400.213 400.213 0 0 1 35.413 64 386.133 386.133 0 0 1 21.333 72.106 386.347 386.347 0 0 1-21.333 226.774 393.6 393.6 0 0 1-35.413 65.28A384 384 0 0 1 727.253 829.44a382.72 382.72 0 0 1-429.226 0A386.773 386.773 0 0 1 158.08 661.333a386.133 386.133 0 0 1-21.333-72.106 386.347 386.347 0 0 1 21.333-226.56 393.6 393.6 0 0 1 35.413-65.28 384 384 0 0 1 103.894-103.894 382.72 382.72 0 0 1 429.226 0A42.667 42.667 0 1 0 774.4 122.88a458.24 458.24 0 0 0-79.787-42.667 463.573 463.573 0 0 0-88.106-27.306 469.333 469.333 0 0 0-189.014 0 463.573 463.573 0 0 0-88.106 27.306A458.24 458.24 0 0 0 249.6 122.88 463.147 463.147 0 0 0 122.88 249.6a450.56 450.56 0 0 0-42.667 79.787 469.333 469.333 0 0 0 0 365.226A450.56 450.56 0 0 0 122.88 774.4 463.147 463.147 0 0 0 249.6 901.12a458.24 458.24 0 0 0 79.787 42.667 469.333 469.333 0 0 0 365.226 0A458.24 458.24 0 0 0 774.4 901.12 463.147 463.147 0 0 0 901.12 774.4a450.56 450.56 0 0 0 42.667-79.787 469.333 469.333 0 0 0 27.306-277.333z" fill="#333"/><path d="M512 512V256a42.667 42.667 0 0 0-85.333 0v298.667a42.667 42.667 0 0 0 42.666 42.666H768A42.667 42.667 0 0 0 768 512z" fill="#333"/></svg>